{
    "asset" : {
        "generator" : "Khronos glTF Blender I/O v1.4.40",
        "version" : "2.0"
    },
    "scene" : 0,
    "scenes" : [
        {
            "name" : "Scene",
            "nodes" : [
                16
            ]
        }
    ],
    "nodes" : [
        {
            "name" : "Head",
            "rotation" : [
                -6.416330877114726e-36,
                -7.105426934084528e-15,
                -4.235164736271502e-22,
                1
            ],
            "translation" : [
                0,
                0.5,
                0
            ]
        },
        {
            "name" : "Hand.R",
            "rotation" : [
                3.009265538105056e-35,
                0,
                3.0130032427986863e-34,
                1
            ],
            "translation" : [
                2.6645352591003757e-14,
                0.24999994039535522,
                2.9802306400483758e-08
            ]
        },
        {
            "children" : [
                1
            ],
            "name" : "LowerArm.R",
            "rotation" : [
                -1.8860046944163593e-28,
                5.684341886080802e-14,
                9.295900013855106e-35,
                1
            ],
            "translation" : [
                -1.7763534512684614e-15,
                0.25,
                2.9802306400483758e-08
            ]
        },
        {
            "children" : [
                2
            ],
            "name" : "UpperArm.R",
            "rotation" : [
                0.7071068286895752,
                3.9055990441738686e-07,
                3.9055990441738686e-07,
                0.7071068286895752
            ],
            "translation" : [
                5.032222739637798e-16,
                0.4062499701976776,
                0.28125
            ]
        },
        {
            "name" : "Hand.L",
            "rotation" : [
                6.018531076210112e-36,
                4.235164736271502e-22,
                -7.686122076821622e-42,
                1
            ],
            "translation" : [
                1.504632769052528e-36,
                0.24999994039535522,
                -2.9802322387695312e-08
            ]
        },
        {
            "children" : [
                4
            ],
            "name" : "LowerArm.L",
            "rotation" : [
                -1.8860044536751163e-28,
                2.117582368135751e-22,
                -5.1834030195374983e-42,
                1
            ],
            "translation" : [
                -3.4410710957851055e-22,
                0.25,
                -2.9802322387695312e-08
            ]
        },
        {
            "children" : [
                5
            ],
            "name" : "UpperArm.L",
            "rotation" : [
                -0.7071068286895752,
                -5.024295781800919e-15,
                -5.02429705235034e-15,
                0.7071068286895752
            ],
            "translation" : [
                3.9968028886505635e-15,
                0.4062499701976776,
                -0.28125
            ]
        },
        {
            "children" : [
                0,
                3,
                6
            ],
            "name" : "Torso",
            "rotation" : [
                -5.7601173608645695e-08,
                -5.760116295050466e-08,
                0.7071068286895752,
                0.7071068286895752
            ],
            "translation" : [
                0,
                0.1875,
                0
            ]
        },
        {
            "name" : "Foot.R",
            "rotation" : [
                1.7763568394002505e-15,
                -4.76837158203125e-07,
                9.034951932289511e-22,
                1
            ],
            "translation" : [
                3.477275356544851e-09,
                0.15625,
                -1.8999095630078955e-08
            ]
        },
        {
            "children" : [
                8
            ],
            "name" : "LowerLeg.R",
            "rotation" : [
                -1.3907092366594043e-08,
                3.5762786865234375e-07,
                -4.420582366007836e-16,
                1
            ],
            "translation" : [
                7.202546559170742e-09,
                0.15625,
                -1.961978846054535e-08
            ]
        },
        {
            "children" : [
                9
            ],
            "name" : "UpperLeg.R",
            "rotation" : [
                -4.776736872713627e-08,
                -1.8263730794387811e-07,
                -0.7071068286895752,
                0.7071068286895752
            ],
            "translation" : [
                -2.0365083841511478e-08,
                0.140625,
                0.1249999925494194
            ]
        },
        {
            "name" : "Foot.L",
            "rotation" : [
                -1.7763568394002505e-15,
                -1.7763568394002505e-15,
                5.293955604795015e-23,
                1
            ],
            "translation" : [
                -3.725290742551124e-09,
                0.15625,
                -1.27675647831893e-15
            ]
        },
        {
            "children" : [
                11
            ],
            "name" : "LowerLeg.L",
            "rotation" : [
                1.3907092366594043e-08,
                -1.986953002131031e-08,
                2.763273730943132e-16,
                1
            ],
            "translation" : [
                -2.4839386103536754e-09,
                0.15625,
                2.483196537284016e-09
            ]
        },
        {
            "children" : [
                12
            ],
            "name" : "UpperLeg.L",
            "rotation" : [
                0.7071068286895752,
                0.7071068286895752,
                8.148484909042963e-08,
                5.338508657359853e-08
            ],
            "translation" : [
                2.5456357022335396e-08,
                0.140625,
                -0.15625
            ]
        },
        {
            "children" : [
                7,
                10,
                13
            ],
            "name" : "Spine",
            "rotation" : [
                5.760116650321834e-08,
                5.760116650321834e-08,
                -0.7071068286895752,
                0.7071068286895752
            ],
            "scale" : [
                1,
                0.9999999403953552,
                1
            ],
            "translation" : [
                -0.1875,
                0,
                0
            ]
        },
        {
            "mesh" : 0,
            "name" : "Char_Model",
            "skin" : 0
        },
        {
            "children" : [
                15,
                14
            ],
            "name" : "Char_Rig",
            "translation" : [
                0,
                0.5,
                0
            ]
        }
    ],
    "meshes" : [
        {
            "name" : "Char_Mesh",
            "primitives" : [
                {
                    "attributes" : {
                        "POSITION" : 0,
                        "NORMAL" : 1,
                        "TEXCOORD_0" : 2,
                        "JOINTS_0" : 3,
                        "WEIGHTS_0" : 4
                    },
                    "indices" : 5
                }
            ]
        }
    ],
    "skins" : [
        {
            "inverseBindMatrices" : 6,
            "joints" : [
                14,
                7,
                0,
                3,
                2,
                1,
                6,
                5,
                4,
                10,
                9,
                8,
                13,
                12,
                11
            ],
            "name" : "Char_Rig"
        }
    ],
    "accessors" : [
        {
            "bufferView" : 0,
            "componentType" : 5126,
            "count" : 322,
            "max" : [
                0.5,
                2,
                1.09375
            ],
            "min" : [
                -0.5,
                0,
                -1.09375
            ],
            "type" : "VEC3"
        },
        {
            "bufferView" : 1,
            "componentType" : 5126,
            "count" : 322,
            "type" : "VEC3"
        },
        {
            "bufferView" : 2,
            "componentType" : 5126,
            "count" : 322,
            "type" : "VEC2"
        },
        {
            "bufferView" : 3,
            "componentType" : 5121,
            "count" : 322,
            "type" : "VEC4"
        },
        {
            "bufferView" : 4,
            "componentType" : 5126,
            "count" : 322,
            "type" : "VEC4"
        },
        {
            "bufferView" : 5,
            "componentType" : 5123,
            "count" : 504,
            "type" : "SCALAR"
        },
        {
            "bufferView" : 6,
            "componentType" : 5126,
            "count" : 15,
            "type" : "MAT4"
        }
    ],
    "bufferViews" : [
        {
            "buffer" : 0,
            "byteLength" : 3864,
            "byteOffset" : 0
        },
        {
            "buffer" : 0,
            "byteLength" : 3864,
            "byteOffset" : 3864
        },
        {
            "buffer" : 0,
            "byteLength" : 2576,
            "byteOffset" : 7728
        },
        {
            "buffer" : 0,
            "byteLength" : 1288,
            "byteOffset" : 10304
        },
        {
            "buffer" : 0,
            "byteLength" : 5152,
            "byteOffset" : 11592
        },
        {
            "buffer" : 0,
            "byteLength" : 1008,
            "byteOffset" : 16744
        },
        {
            "buffer" : 0,
            "byteLength" : 960,
            "byteOffset" : 17752
        }
    ],
    "buffers" : [
        {
            "byteLength" : 18712,
            "uri" : "data:application/octet-stream;base64,"
        }
    ]
}
